<svg width="140" height="140" viewBox="0 0 140 140" fill="none" xmlns="http://www.w3.org/2000/svg">
<g clip-path="url(#clip0_275_302)">
<path d="M-1 145V105.612C-1 101.266 0.940805 97.5387 4.82242 94.4293C8.70568 91.3199 13.3962 89.7652 18.8941 89.7652H54.481C62.1635 89.7652 68.6763 87.6533 74.0192 83.4294C79.3639 79.2056 82.0362 74.0575 82.0362 67.9853C82.0362 62.0151 79.3235 56.8762 73.8981 52.5686C68.4728 48.261 62.0004 46.1072 54.481 46.1072C52.153 46.1072 50.232 45.5068 48.7179 44.306C47.2055 43.1038 46.4492 41.5786 46.4492 39.7302V5H51.0212V37.5718C51.0212 39.0107 51.639 40.2207 52.8747 41.2018C54.1103 42.1829 55.6343 42.6734 57.4466 42.6734C65.6151 43.3275 72.4763 46.0876 78.0302 50.9538C83.5841 55.8199 86.361 61.4958 86.361 67.9814C86.361 75.0085 83.2595 80.9682 77.0565 85.8605C70.8535 90.7529 63.3283 93.199 54.481 93.199H18.8941C14.655 93.199 11.0007 94.4273 7.93133 96.8839C4.86031 99.3406 3.3248 102.266 3.3248 105.659V145H-1ZM26.308 145H21.9832V133.914C21.9832 129.521 23.924 125.774 27.8056 122.673C31.6889 119.571 36.3795 118.02 41.8773 118.02H83.3954C97.617 118.02 109.719 114.066 119.701 106.157C129.684 98.2483 134.675 88.6762 134.675 77.4409V67.9794C134.675 57.1012 130.384 47.5971 121.802 39.4673C113.22 31.3361 102.313 27.2705 89.0794 27.2705C83.6376 27.2705 79.0022 25.7132 75.1733 22.5986C71.3461 19.484 69.4325 15.8252 69.4325 11.6223V5H73.7573V14.2221C73.7573 16.8384 74.9312 19.0948 77.2789 20.9916C79.6267 22.8883 82.4893 23.8367 85.8667 23.8367C100.859 23.8367 113.463 27.99 123.678 36.2964C133.893 44.6029 139 55.1757 139 68.0147V77.3742C139 89.6534 133.599 100.07 122.798 108.624C111.997 117.177 98.8625 121.454 83.3954 121.454H41.8773C37.6398 121.454 33.9856 122.682 30.9146 125.139C27.8435 127.596 26.308 130.521 26.308 133.914V145Z" fill="#2F6BFF"/>
</g>
<defs>
<clipPath id="clip0_275_302">
<rect width="140" height="140" fill="white"/>
</clipPath>
</defs>
</svg>
