<svg width="143" height="143" viewBox="0 0 143 143" fill="none" xmlns="http://www.w3.org/2000/svg">
<g filter="url(#filter0_d_275_309)">
<path d="M20.4038 135C15.9887 135 12.1509 133.377 8.89057 130.131C5.63019 126.886 4 123.065 4 118.67V81.7242L26.517 31.7468C28.1472 28.2983 30.3608 25.3907 33.158 23.024C35.9565 20.6574 39.189 19.4741 42.8555 19.4741C46.5669 19.4741 49.8321 20.6067 52.6509 22.8719C55.4698 25.1371 56.8792 28.0772 56.8792 31.692V51.018H53.3132V31.688C53.3132 29.2321 52.2441 27.2414 50.1058 25.7159C47.9675 24.1918 45.4734 23.4298 42.6232 23.4298C39.4322 23.4298 36.7994 24.444 34.725 26.4726C32.6492 28.5011 31 31.003 29.7774 33.9782L7.56604 82.4606V118.67C7.56604 122.292 8.79615 125.327 11.2564 127.776C13.7166 130.225 16.7657 131.45 20.4038 131.45H49.7472C53.0755 131.45 56.0642 130.225 58.7132 127.776C61.3623 125.327 62.6868 122.292 62.6868 118.67V101.833H66.2528V118.686C66.2528 123.071 64.6084 126.886 61.3195 130.131C58.0306 133.377 54.1731 135 49.7472 135H20.4038ZM122.494 135H93.1509C88.5946 135 84.7215 133.377 81.5318 130.131C78.342 126.886 76.7472 123.071 76.7472 118.686V101.833H80.3132V118.67C80.3132 122.292 81.5433 125.327 84.0035 127.776C86.4651 130.225 89.5143 131.45 93.1509 131.45H122.494C125.842 131.45 128.835 130.225 131.475 127.776C134.114 125.327 135.434 122.292 135.434 118.67V82.4606L112.713 33.9782C111.626 31.003 110 28.5011 107.835 26.4726C105.669 24.444 103.067 23.4298 100.028 23.4298C97.3154 23.4298 94.9136 24.1918 92.8229 25.7159C90.7322 27.2414 89.6868 29.2321 89.6868 31.688V51.018H86.1208V31.692C86.1208 28.2192 87.4989 25.315 90.2553 22.9794C93.0117 20.6425 96.2232 19.4741 99.8897 19.4741C103.616 19.4741 106.85 20.6635 109.591 23.0423C112.333 25.4225 114.46 28.324 115.974 31.7468L139 81.7242V118.67C139 123.065 137.368 126.886 134.105 130.131C130.842 133.377 126.972 135 122.494 135ZM71.3472 60.2479L52.3962 79.1134L49.9509 76.882L69.6151 57.3228V0H73.1811V57.1037L92.8453 76.882L90.8075 79.1134L71.3472 60.2479Z" fill="#2F6BFF"/>
</g>
<defs>
<filter id="filter0_d_275_309" x="0" y="0" width="143" height="143" filterUnits="userSpaceOnUse" color-interpolation-filters="sRGB">
<feFlood flood-opacity="0" result="BackgroundImageFix"/>
<feColorMatrix in="SourceAlpha" type="matrix" values="0 0 0 0 0 0 0 0 0 0 0 0 0 0 0 0 0 0 127 0" result="hardAlpha"/>
<feOffset dy="4"/>
<feGaussianBlur stdDeviation="2"/>
<feComposite in2="hardAlpha" operator="out"/>
<feColorMatrix type="matrix" values="0 0 0 0 0 0 0 0 0 0 0 0 0 0 0 0 0 0 0.25 0"/>
<feBlend mode="normal" in2="BackgroundImageFix" result="effect1_dropShadow_275_309"/>
<feBlend mode="normal" in="SourceGraphic" in2="effect1_dropShadow_275_309" result="shape"/>
</filter>
</defs>
</svg>
