<svg width="120" height="90" viewBox="0 0 120 90" fill="none" xmlns="http://www.w3.org/2000/svg">
<path d="M33.25 0C38.5 0 43.3854 1.45833 47.9063 4.375C52.4271 7.29167 56.4375 11.5694 59.9375 17.2083C63.632 11.4722 67.691 7.17014 72.1146 4.30208C76.5382 1.43403 81.375 0 86.625 0C93.4306 0 99.1424 2.30903 103.76 6.92708C108.378 11.5451 110.688 17.2569 110.688 24.0625C110.688 25.0347 110.639 25.9583 110.542 26.8333C110.444 27.7083 110.299 28.6319 110.104 29.6042H106.896C106.993 28.6319 107.115 27.7083 107.26 26.8333C107.406 25.9583 107.479 25.0347 107.479 24.0625C107.479 18.1319 105.486 13.1736 101.5 9.1875C97.5139 5.20139 92.5556 3.20833 86.625 3.20833C81.7639 3.20833 77.316 4.61806 73.2813 7.4375C69.2465 10.2569 65.2847 14.7778 61.3958 21H58.4792C54.4931 14.7778 50.4826 10.2569 46.4479 7.4375C42.4132 4.61806 38.0139 3.20833 33.25 3.20833C27.4167 3.20833 22.4826 5.20139 18.4479 9.1875C14.4132 13.1736 12.3958 18.1319 12.3958 24.0625C12.3958 25.0347 12.4688 25.9583 12.6146 26.8333C12.7604 27.7083 12.8819 28.6319 12.9792 29.6042H9.77083C9.57639 28.6319 9.43056 27.7083 9.33333 26.8333C9.23611 25.9583 9.1875 25.0347 9.1875 24.0625C9.1875 17.2569 11.4965 11.5451 16.1146 6.92708C20.7326 2.30903 26.4444 0 33.25 0ZM29.8958 60.2292H34.125C37.4306 63.6319 41.2222 67.3507 45.5 71.3854C49.7778 75.4201 54.5903 79.9167 59.9375 84.875C65.2847 79.9167 70.0972 75.4444 74.375 71.4583C78.6528 67.4722 82.4445 63.7292 85.75 60.2292H89.9792C86.4792 63.9236 82.4688 67.934 77.9479 72.2604C73.4271 76.5868 68.25 81.4722 62.4167 86.9167L59.9375 89.25L57.4583 86.9167C51.625 81.4722 46.4479 76.5868 41.9271 72.2604C37.4063 67.934 33.3958 63.9236 29.8958 60.2292ZM54.3958 64.0208C54.6875 64.0208 54.9306 63.9236 55.125 63.7292C55.3194 63.5347 55.4653 63.2917 55.5625 63L66.2083 31.2083L75.25 44.7708C75.7361 45.3542 76.2465 45.7917 76.7813 46.0833C77.316 46.375 77.9236 46.5208 78.6042 46.5208H119.875V43.3125H78.0208L66.9375 26.6875C66.7431 26.3958 66.5243 26.2014 66.2813 26.1042C66.0382 26.0069 65.7708 25.9583 65.4792 25.9583C65.1875 25.9583 64.9201 26.0556 64.6771 26.25C64.434 26.4444 64.3125 26.6875 64.3125 26.9792L53.6667 59.0625L44.1875 44.9167C43.7986 44.4306 43.3368 44.0417 42.8021 43.75C42.2674 43.4583 41.6597 43.3125 40.9792 43.3125H0V46.5208H41.5625L52.6458 63.2917C52.8403 63.6806 53.1076 63.8993 53.4479 63.9479C53.7882 63.9965 54.1042 64.0208 54.3958 64.0208Z" fill="#2F6BFF"/>
</svg>
