<svg width="92" height="95" viewBox="0 0 92 95" fill="none" xmlns="http://www.w3.org/2000/svg">
<path d="M53.8777 94.2188C45.6398 94.2188 38.6789 91.3359 32.9948 85.5703C27.3108 79.8047 24.4688 72.8438 24.4688 64.6875V61.3125C17.625 60.9375 11.8359 58.2323 7.10156 53.197C2.36719 48.1617 0 42.195 0 35.2969V5.625H16.875V0H19.9688V14.3438H16.875V8.71875H3.09375V35.2406C3.09375 41.6531 5.31656 47.0859 9.76219 51.5391C14.2078 55.9922 19.6219 58.2188 26.0044 58.2188C32.3869 58.2188 37.8047 55.995 42.2578 51.5475C46.7109 47.0991 48.9375 41.6672 48.9375 35.2519V8.71875H35.1562V14.3438H32.0625V0H35.1562V5.625H52.0312V35.2969C52.0312 42.195 49.6641 48.1617 44.9297 53.197C40.1953 58.2323 34.4062 60.9375 27.5625 61.3125V64.6875C27.5625 71.9531 30.0839 78.1758 35.1267 83.3555C40.1695 88.5352 46.4138 91.125 53.8594 91.125C61.0781 91.125 67.2422 88.5516 72.3516 83.4047C77.4609 78.2578 80.0156 72.008 80.0156 64.6552V55.6875C77.6719 55.2188 75.6797 54.0741 74.0391 52.2534C72.3984 50.4328 71.5781 48.2494 71.5781 45.7031C71.5781 42.93 72.5527 40.5727 74.5017 38.6311C76.4517 36.6895 78.8189 35.7188 81.6033 35.7188C84.3886 35.7188 86.7422 36.6895 88.6641 38.6311C90.5859 40.5727 91.5469 42.93 91.5469 45.7031C91.5469 48.2494 90.7266 50.4328 89.0859 52.2534C87.4453 54.0741 85.4531 55.2188 83.1094 55.6875V64.6875C83.1094 72.9694 80.2734 79.9617 74.6016 85.6645C68.9297 91.3673 62.0217 94.2188 53.8777 94.2188ZM81.5358 52.5938C83.4286 52.5938 85.0547 51.923 86.4141 50.5814C87.7734 49.2408 88.4531 47.6236 88.4531 45.7298C88.4531 43.837 87.7823 42.2109 86.4408 40.8516C85.1002 39.4922 83.483 38.8125 81.5892 38.8125C79.6964 38.8125 78.0703 39.4833 76.7109 40.8248C75.3516 42.1655 74.6719 43.7827 74.6719 45.6764C74.6719 47.5692 75.3427 49.1953 76.6842 50.5547C78.0248 51.9141 79.642 52.5938 81.5358 52.5938Z" fill="#2F6BFF"/>
</svg>
